<svg width="280" height="130" viewBox="0 0 280 130" fill="none" xmlns="http://www.w3.org/2000/svg">
<path d="M44.584 95L22.824 65.048V95H0.936V0.279999H22.824V52.632L44.456 23.576H71.464L41.768 59.416L71.72 95H44.584ZM150.589 23.576V95H128.701V85.272C126.482 88.4293 123.453 90.9893 119.613 92.952C115.858 94.8293 111.677 95.768 107.069 95.768C101.608 95.768 96.7863 94.5733 92.605 92.184C88.4237 89.7093 85.181 86.168 82.877 81.56C80.573 76.952 79.421 71.5333 79.421 65.304V23.576H101.181V62.36C101.181 67.1387 102.418 70.8507 104.893 73.496C107.368 76.1413 110.696 77.464 114.877 77.464C119.144 77.464 122.514 76.1413 124.989 73.496C127.464 70.8507 128.701 67.1387 128.701 62.36V23.576H150.589ZM188.199 0.279999V95H166.311V0.279999H188.199ZM225.949 33.688C228.082 30.36 231.026 27.672 234.781 25.624C238.536 23.576 242.93 22.552 247.965 22.552C253.853 22.552 259.186 24.0453 263.965 27.032C268.744 30.0187 272.498 34.2853 275.229 39.832C278.045 45.3787 279.453 51.8213 279.453 59.16C279.453 66.4987 278.045 72.984 275.229 78.616C272.498 84.1627 268.744 88.472 263.965 91.544C259.186 94.5307 253.853 96.024 247.965 96.024C243.016 96.024 238.621 95 234.781 92.952C231.026 90.904 228.082 88.2587 225.949 85.016V129.048H204.061V23.576H225.949V33.688ZM257.181 59.16C257.181 53.6987 255.645 49.432 252.573 46.36C249.586 43.2027 245.874 41.624 241.437 41.624C237.085 41.624 233.373 43.2027 230.301 46.36C227.314 49.5173 225.821 53.8267 225.821 59.288C225.821 64.7493 227.314 69.0587 230.301 72.216C233.373 75.3733 237.085 76.952 241.437 76.952C245.789 76.952 249.501 75.3733 252.573 72.216C255.645 68.9733 257.181 64.6213 257.181 59.16Z" fill="#24C35E"/>
</svg>